<?xml version="1.0" encoding="UTF-8" standalone="no"?>
<svg id="svg2" xmlns:rdf="http://www.w3.org/1999/02/22-rdf-syntax-ns#" xmlns="http://www.w3.org/2000/svg" height="400" width="800" version="1.1" xmlns:cc="http://creativecommons.org/ns#" xmlns:dc="http://purl.org/dc/elements/1.1/">
<g id="g4" transform="translate(-44.632 -141.55)">
<g id="g6" transform="matrix(8.3528 0 0 8.3119 -727.13 -3759.5)">
<path id="path8" d="m99.974 479.48h14.204c4.1693 0.0354 7.1903 1.2367 9.063 3.604 1.8726 2.3674 2.491 5.6004 1.855 9.699-0.24737 1.8727-0.79504 3.71-1.643 5.512-0.8127 1.802-1.9434 3.4273-3.392 4.876-1.7667 1.8373-3.657 3.0033-5.671 3.498-2.014 0.49467-4.0987 0.742-6.254 0.742h-6.36l-2.014 10.07h-7.367l7.579-38.001m6.201 6.042-3.18 15.9c0.21198 0.0353 0.42398 0.053 0.636 0.053h0.742c3.392 0.0353 6.2186-0.30033 8.48-1.007 2.2613-0.74199 3.7806-3.3213 4.558-7.738 0.63597-3.71-0.00003-5.8476-1.908-6.413-1.8727-0.56531-4.2224-0.83031-7.049-0.795-0.42402 0.0353-0.83035 0.053-1.219 0.053-0.35335 0.00002-0.72435 0.00002-1.113 0l0.053-0.053"/>
<path id="path10" d="m133.49 469.36h7.314l-2.067 10.123h6.572c3.604 0.0707 6.2893 0.81269 8.056 2.226 1.802 1.4134 2.332 4.0987 1.59 8.056l-3.551 17.649h-7.42l3.392-16.854c0.35328-1.7666 0.2473-3.021-0.318-3.763-0.56536-0.74198-1.7844-1.113-3.657-1.113l-5.883-0.053-4.346 21.783h-7.314l7.632-38.054"/>
<path id="path12" d="m162.81 479.48h14.204c4.1693 0.0354 7.1903 1.2367 9.063 3.604 1.8726 2.3674 2.491 5.6004 1.855 9.699-0.24737 1.8727-0.79503 3.71-1.643 5.512-0.8127 1.802-1.9434 3.4273-3.392 4.876-1.7667 1.8373-3.657 3.0033-5.671 3.498-2.014 0.49467-4.0987 0.742-6.254 0.742h-6.36l-2.014 10.07h-7.367l7.579-38.001m6.201 6.042-3.18 15.9c0.21199 0.0353 0.42399 0.053 0.636 0.053h0.742c3.392 0.0353 6.2186-0.30033 8.48-1.007 2.2613-0.74199 3.7806-3.3213 4.558-7.738 0.63597-3.71-0.00003-5.8476-1.908-6.413-1.8727-0.56531-4.2224-0.83031-7.049-0.795-0.42402 0.0353-0.83035 0.053-1.219 0.053-0.35335 0.00002-0.72435 0.00002-1.113 0l0.053-0.053"/>
</g>
</g>
</svg>
